<svg xmlns="http://www.w3.org/2000/svg" viewBox="0 0 43.75 49">
<g id="Group 10">
<path id="Vector" d="M28.6427 23.6223C28.6119 23.678 28.4778 23.7799 28.487 23.8407L28.5344 24.166L28.1562 24.3587C28.0121 24.4323 28.292 25.0522 27.5873 25.3655C27.6164 25.4631 27.6606 25.7149 27.5831 25.7568L27.1374 25.9983L26.8909 25.5179L26.2603 25.4683L25.7671 25.0393L26.1728 24.2439C26.2053 24.1797 26.1603 23.8955 26.2311 23.9032L26.5618 23.9383L26.4202 23.7636C26.3852 23.7208 26.4502 23.642 26.5343 23.5376L26.3877 23.3072L26.7209 23.0367C26.8034 22.9691 26.7542 22.7276 26.7226 22.588L27.1774 22.6711L26.9775 22.2139L27.2291 21.6334C27.3274 21.4074 27.4582 21.2824 27.459 21.0204C27.459 20.8988 27.6023 20.7686 27.7514 20.6976C27.7581 20.6907 27.7064 20.5118 27.7539 20.4887L28.0504 20.3465C27.8089 20.0041 27.9588 19.4895 28.3787 19.2943L28.3287 18.9184L28.4395 18.5066C28.9651 18.0596 28.6561 17.6375 28.9918 17.474C28.9993 17.4423 28.9676 17.2848 29.0201 17.2642L29.2983 17.1581L29.1534 17.0211C29.1117 16.9817 29.2317 16.8995 29.3392 16.8344C29.4791 16.8199 29.4741 16.7942 29.34 16.7771C29.2925 16.712 29.1959 16.5673 29.1792 16.6033L29.0942 16.7899L28.2137 16.9046C28.1429 16.9141 27.9363 16.8182 27.943 16.8105C27.8797 16.9046 27.7539 17.0288 27.6689 17.0459C27.5481 17.0699 27.4415 16.8481 27.4457 16.7017C27.4482 16.6837 27.2616 16.7077 27.2674 16.7514L27.2924 16.9526L26.7542 17.2317L26.581 17.1281C26.3211 17.3696 26.012 17.3961 25.7488 17.1384L25.4755 17.4346C25.3481 17.5725 24.9599 17.1632 24.5184 17.6119L24.3443 17.3935L23.712 17.772L23.3496 17.4963L23.2788 17.8816C23.2063 17.7891 23.138 17.6752 23.0881 17.6684L22.819 17.6324L22.9648 17.444C23.0031 17.3944 22.7982 17.2993 22.6965 17.2565L22.7282 16.6726C22.5991 16.4748 22.5224 16.1332 22.5699 15.9508C22.904 16.0048 23.103 15.6041 23.1389 15.7599L23.2038 16.045L23.762 15.4029C24.0669 15.6837 24.4351 15.4388 24.6508 15.259L25.1523 15.2042C25.4955 15.1666 25.7754 15.0844 26.0362 14.8464L26.7293 14.7539C26.7742 14.7479 26.9009 14.5869 26.9333 14.6186L27.1008 14.7787C27.1366 14.6845 27.1591 14.5749 27.2082 14.5672L27.4848 14.5244L28.4811 14.1554L28.4603 13.9114C28.4561 13.8592 28.3512 13.8506 28.2362 13.8129C28.0963 13.7667 27.9855 13.5561 27.9771 13.4319C27.6481 13.2872 27.3157 12.9824 27.1424 12.6571L26.6118 12.1468C26.4352 11.9764 26.127 11.842 25.8812 11.7512L26.0395 11.5646L24.8549 10.8385L25.0782 10.5551L24.7824 10.5474C24.7283 10.5457 24.6567 10.4789 24.5867 10.4156L24.0011 9.88986L23.5104 9.38727L23.2355 9.12785C23.1972 9.09189 23.1314 9.00027 23.0906 9.00969L22.884 9.05764L22.9881 8.54307L22.8082 8.67492C22.7515 8.71687 21.9118 8.2982 22.0076 7.64235C22.3033 7.54903 22.6182 7.29645 22.5941 6.98822L23.0372 6.7091L23.2147 6.91202C23.2647 6.96938 23.4887 6.85465 23.5754 6.81955C23.6837 7.12436 23.8569 7.3307 24.166 7.42488C24.58 7.55074 24.8924 7.95743 24.8499 8.38724L25.024 7.92147L25.4372 8.25967L25.4847 8.61584L25.8246 8.47029C25.9579 8.89411 26.1753 8.75883 26.4394 9.2323C26.4652 9.27854 26.5826 9.12956 26.6276 9.08076L27.2874 9.69379C27.479 9.87188 27.8713 9.80081 27.898 10.3154C27.9013 10.3813 28.1404 10.2529 28.1971 10.2846C28.3603 10.3762 28.6036 10.6681 28.7127 10.8223C28.8252 10.7949 29.0209 10.8505 29.0726 10.9789C29.1076 11.0654 29.0368 11.1836 28.9643 11.3676L29.195 11.2289C29.2175 11.2152 29.704 11.419 29.7057 11.4413L29.7373 11.794L30.0106 11.7392C30.0689 11.7272 30.143 11.812 30.2813 11.9113C30.3596 11.6964 30.3221 11.4635 30.2205 11.1716L30.5546 11.0166L30.2205 10.538C30.5062 10.2786 30.4879 9.89071 30.2647 9.57906L30.5146 9.44721C30.662 9.36929 30.2905 9.06877 30.373 8.41207L30.727 8.35299L30.4904 8.19802L30.5321 7.6004C30.5471 7.38549 30.4996 7.23909 30.3121 7.04387L30.6362 6.8127L30.3305 6.46423L30.7095 6.38204L30.5421 5.85719L30.4071 5.43423C30.5362 5.24416 30.6295 5.03867 30.6279 4.85116L30.6195 4.19018L30.6079 3.06258L30.5587 2.86309C30.5512 2.83397 30.5554 2.73979 30.5829 2.74921L30.7678 2.81171C30.7145 2.68585 30.6554 2.49578 30.657 2.38533L30.6603 2.21666C30.6612 2.17214 30.7511 2.08395 30.7761 2.11991L30.9394 2.36393C31.0935 2.06255 30.6154 1.82795 30.7003 1.6687L30.8994 1.29797L30.6379 1.05481C30.7753 0.819354 30.8011 0.65154 30.7595 0.413519L30.7103 0.136968C30.7003 0.0787474 30.8619 0.126694 30.9336 0.142962C31.4751 -0.184104 31.7258 0.347592 31.8383 0.267966L32.0798 0.095015C32.1515 0.0436435 32.3356 -0.0102967 32.4222 0.00169004C32.5263 0.0162453 32.5713 0.301357 32.5272 0.405813C32.4397 0.610443 32.4572 0.6875 32.4905 0.870725L32.6413 1.70209C32.663 1.89816 32.5297 2.31769 32.5838 2.50777C32.7196 2.98295 32.7838 3.42903 32.4389 3.68161C32.3906 3.77493 32.3739 3.92305 32.5305 3.71414C32.5472 3.68246 32.7596 3.80404 32.7479 3.8674L32.6905 4.17392L32.678 5.45649C32.678 5.52499 32.7413 5.70993 32.6946 5.75188L32.483 5.94024C32.568 5.98391 32.7488 6.12946 32.7821 6.23306C32.8154 6.33666 32.6921 6.54985 32.628 6.65088C32.7796 6.88633 32.8421 7.03959 32.8129 7.23909L32.8462 8.14494C32.8479 8.18775 32.6796 8.31275 32.7146 8.33672L32.9195 8.478C32.8721 8.60899 32.9137 8.86414 32.8954 8.98486L32.8687 9.1561L32.8979 9.30422C32.7763 9.53711 32.7996 9.7854 32.8904 10.0457L32.9362 10.7161L32.9145 11.2024L32.9862 12.0629L33.2478 11.6742L33.6618 11.6468C33.7642 11.6399 33.8226 11.4113 33.9025 11.3471L34.7264 10.6853C34.8755 10.5654 35.0738 10.568 35.3437 10.5962C35.3387 10.5354 35.292 10.3257 35.3612 10.2777L35.6861 10.0508C35.8368 9.94551 35.956 9.79739 36.1334 9.80167L37.0156 8.9977C37.183 9.18521 37.3896 9.27425 37.6204 9.1347L37.4463 8.81277L37.6703 8.77424L37.6512 8.59273L37.9019 8.51053C37.9494 8.49512 37.9419 8.42748 37.9869 8.26994L38.6233 8.87527C38.5983 8.98144 38.5592 9.10901 38.6075 9.13812L38.8591 9.28795L38.7974 9.67581C38.8474 9.62701 38.9482 9.48488 38.9957 9.51485L39.2856 9.69465C38.9332 10.2828 38.4117 10.6519 37.8111 10.9815L37.662 11.2795C37.6304 11.342 37.4787 11.3257 37.3963 11.324C37.4529 12.0261 36.6257 11.7957 36.3933 12.4867C36.37 12.5552 36.2042 12.7298 36.1651 12.6793L35.9984 12.4661L35.6486 12.4362C35.6486 12.4362 35.6486 12.6425 35.6486 12.6417L35.8793 12.6177C35.9235 12.6134 36.0068 12.7658 35.9693 12.7881C35.9318 12.8103 35.7844 12.8754 35.7569 12.9105L35.2804 13.5227C35.1896 13.6391 34.9746 13.6622 34.8114 13.628C34.823 13.6622 34.8963 13.8335 34.843 13.8609L34.5631 14.0073C34.4965 14.116 34.8139 14.2436 34.9521 14.2676L35.4661 14.3558C35.8427 14.4825 36.2292 14.5493 36.664 14.628C36.9914 14.6871 37.3438 15.1024 37.7112 14.8969L37.827 15.4269L37.9136 14.9422L38.8549 15.3832C38.9032 15.4054 38.9715 15.5707 39.014 15.5587L39.2231 15.5031C39.2906 15.4851 39.5463 15.4757 39.5805 15.5373L39.7146 15.7796L39.9595 15.5227C40.0062 15.4739 40.1328 15.6221 40.1919 15.6537C40.4593 15.7505 40.7243 15.9243 40.8892 16.1127L41.2024 16.0484C41.2866 16.0313 41.4773 16.2188 41.5056 16.3045L41.7606 16.1863C41.8255 16.1563 41.9521 16.2471 42.0238 16.2702C42.4586 16.2205 43.0376 16.6307 42.9984 16.8156L42.8252 17.6487C42.816 17.6906 42.6586 17.76 42.6161 17.7651C42.5736 17.7703 42.731 17.9141 42.7585 17.9372L42.6394 18.3251L42.282 18.4364L42.0396 18.1838C41.9855 18.1273 41.8414 18.236 41.7739 18.2566L41.0333 18.022L40.7293 17.7086L40.6809 18.0134L40.117 17.9192L39.5597 17.8293L38.9466 17.6307C38.9041 17.617 38.7908 17.522 38.7533 17.5468L38.5534 17.6812C38.1268 17.3661 37.7478 17.6179 37.3455 17.2651L36.8948 17.3618L36.9231 16.8019L36.6457 17.2471C35.9801 17.0159 35.2662 17.1555 35.2554 17.1058L35.1871 16.7891C34.9288 17.0656 34.5281 17.0519 34.2449 16.6829C34.1708 16.7231 34.05 16.8079 33.9967 16.8704C33.9325 16.9457 33.945 17.2326 34.0316 17.2788L34.2341 17.385C34.2816 17.4098 34.2724 17.5211 34.2782 17.593C34.4707 17.7309 34.6014 17.9286 34.5881 18.2052C34.5656 18.6675 34.808 18.6384 34.7172 19.0468C34.7039 19.1068 34.9138 19.1701 34.9272 19.2292L35.1013 19.9844C35.2221 19.9544 35.3587 19.9647 35.3828 20.0357C35.4261 20.1633 35.4003 20.2832 35.3387 20.4159L35.4103 20.588C35.4278 20.6291 35.3528 20.7147 35.3212 20.7592C35.776 20.9733 35.9485 21.4887 35.936 21.9468C35.9859 21.9904 36.0942 22.1026 36.1201 22.1565L36.3467 22.6343C36.1076 22.7379 35.8485 22.9485 35.7027 23.1583C34.8014 23.184 34.8997 23.9083 34.5506 23.2336L34.2507 22.654L34.319 22.3492L34.5939 22.4091C34.6564 22.4228 34.6081 22.1582 34.5898 22.1959C34.3199 22.2978 34.0616 22.1831 33.8459 21.9767C33.6909 21.8286 33.6476 21.4878 33.6701 21.2661C33.3727 20.9947 33.1136 20.6779 32.9179 20.326L32.4589 19.5015L32.0015 18.6949L31.7275 18.0888L31.266 18.7026C31.1535 18.8525 31.0394 18.9621 30.9078 19.0605L31.1343 19.1188C31.4842 19.2087 30.732 19.3508 30.7412 19.6094C30.7478 19.8131 30.6345 20.0982 30.4204 20.1933C30.4396 20.2755 30.4962 20.433 30.4488 20.469L30.2388 20.6291L29.9989 20.8397L30.1605 21.0161L29.7632 21.1539C29.7715 21.2164 29.7973 21.3157 29.7607 21.3329L29.5532 21.433L29.7224 21.5307C29.7565 21.5503 29.8065 21.6283 29.7732 21.6505L29.5749 21.7807C29.4599 22.2473 29.2017 22.6394 28.9568 23.0761L28.6461 23.63L28.6427 23.6223ZM32.1881 11.2247L31.8691 11.2837C31.8324 11.2906 31.8324 11.2118 31.8158 11.1065C31.7325 11.0842 31.555 11.2221 31.5392 11.3488C31.5275 11.4413 31.5492 11.6331 31.5634 11.7135L31.8149 11.562C31.8491 11.5415 31.8299 11.4284 31.8291 11.4087L32.0882 11.3788C32.1365 11.3728 32.2215 11.1767 32.1881 11.2255V11.2247Z" fill="black"/>
<g id="Group 8">
<path id="Vector_2" d="M22.2501 48.3046C18.9037 49.4407 15.542 49.1596 12.4137 47.6453L8.45118 45.7263C6.71388 44.8846 4.98614 44.1379 3.67551 42.6655C3.30432 42.2475 3.11681 41.3298 2.86617 40.8187C2.053 39.1638 1.51344 37.5698 1.02363 35.8009L0 32.1074C1.22453 30.937 2.65379 30.5665 4.2629 30.481C5.0378 30.4392 5.92176 30.31 6.65648 30.4221C7.42946 30.5418 8.31533 30.7869 9.03474 30.5703C10.7587 30.0554 12.2128 30.538 13.9137 30.5418L18.412 30.5494L29.4213 29.816L35.2302 28.9325C36.0835 28.8033 37.1932 28.847 37.7768 29.5367C38.215 30.0535 38.1614 30.937 38.0753 31.7103C39.5026 31.3702 40.4593 32.1473 41.4638 32.8731C42.7687 33.8173 43.6584 34.8946 43.7387 36.6217C43.8191 38.3488 43.4594 39.958 42.9772 41.5882C42.1583 44.3545 41.967 45.9429 39.3763 46.2089L35.2263 46.6364C33.1925 46.8454 31.1624 46.169 30.0833 44.5312C29.1285 45.2304 28.147 46.302 27.043 46.6782L22.2482 48.3065L22.2501 48.3046ZM38.1155 40.0967C38.2073 39.4336 37.5759 37.205 37.0383 36.8136C36.7608 36.6122 35.8156 36.4488 35.5975 36.7775L32.2033 41.8827C33.1331 42.8612 34.4935 43.0037 35.8061 42.58C36.7417 42.2779 37.9299 41.4533 38.1155 40.0967Z" fill="black"/>
</g>
</g>
</svg>
